With: Ashley Tisdale, Bradley Steven Perry en Austin Butler

Sharpay Evans krijgt te horen dat ze auditie mag doen voor een musical op Broadway. Ze reist af naar New York samen met haar hondje. Eenmaal aangekomen blijkt dat de auditie voor haar hond is, en niet voor Sharpay zelf. Zal haar droom in duigen vallen, of zal dit het begin zijn van een nieuw avontuur?

Sharpay Evans travels to New York where she is pursuing a Broadway career but it's her dog who lands an acting gig first. 

------------------ Dutch Friends ------------------
You can find my Friends at: http://www.Film-Test.nl 
------ They got my dutchs subs ---- and more ------

General:

Complete name                    : Sharpay's Fabulous Adventure\Sharpay's Fabulous Adventure.avi
Format                           : AVI
Format/Info                      : Audio Video Interleave
File size                        : 1.37 GiB
Duration                         : 1h 28mn
Overall bit rate                 : 2 213 Kbps

Video:

Format                           : MPEG-4 Visual
Format profile                   : Simple@L3
Format settings, BVOP            : No
Format settings, QPel            : No
Format settings, GMC             : No warppoints
Format settings, Matrix          : Default (H.263)
Codec ID                         : XVID
Codec ID/Hint                    : XviD
Duration                         : 1h 28mn
Bit rate                         : 1 818 Kbps
Width                            : 704 pixels
Height                           : 396 pixels
Display aspect ratio             : 16:9
Frame rate                       : 23.976 fps
Color space                      : YUV
Chroma subsampling               : 4:2:0
Bit depth                        : 8 bits
Scan type                        : Progressive
Bits/(Pixel*Frame)               : 0.272
Stream size                      : 1.13 GiB (82%)
Writing library                  : XviD 1.1.2 (UTC 2006-11-01)

Audio:

Format                           : AC-3
Format/Info                      : Audio Coding 3
Mode extension                   : CM (complete main)
Codec ID                         : 2000
Duration                         : 1h 28mn
Bit rate mode                    : Constant
Bit rate                         : 384 Kbps
Channel(s)                       : 6 channels
Channel positions                : Front: L C R, Side: L R, LFE
Sampling rate                    : 48.0 KHz
Bit depth                        : 16 bits
Stream size                      : 244 MiB (17%)
Alignment                        : Aligned on interleaves
Interleave, duration             : 32 ms (0.77 video frame)

